<svg xmlns="http://www.w3.org/2000/svg" fill-rule="evenodd" width="16" height="20"><path d="M9.266.9C4.273.9 1.8 4.4 1.8 7.4c-.044 1.8.6 3.4 2.1 4 .248.1.5 0 .5-.2.082-.2.2-.7.2-.9.12-.2.1-.3-.1-.6-.426-.5-.7-1.1-.7-2C3.804 5 5.8 2.6 9 2.6c2.8 0 4.3 1.8 4.3 4.1.05 3-1.3 5.6-3.3 5.6-1.08 0-1.9-.9-1.6-2.1.276-1.3.9-2.7.9-3.7-.013-.9-.5-1.6-1.4-1.6-1.154 0-2.1 1.2-2.1 2.7.044 1 .4 1.7.4 1.7-.02 0-1.2 4.9-1.4 5.7-.374 1.7 0 3.8 0 4 .013.2.2.2.2.1.15-.1 1.5-1.8 1.9-3.4.17-.5.8-2.9.8-2.9.347.7 1.4 1.3 2.5 1.3 3.427 0 5.7-3.1 5.7-7.2.02-3.1-2.6-6-6.6-6" fill="#fff"/></svg>