<svg width="22px" height="33px" viewBox="0 0 22 33" version="1.1" xmlns="http://www.w3.org/2000/svg" xmlns:xlink="http://www.w3.org/1999/xlink">
        <path d="M19.7685291,25.9633344 C19.0896045,26.2467651 17.7900822,26.4936241 16.8218565,26.5141957 C13.8961815,26.5827677 13.3292445,24.7153251 13.3059138,23.3598864 L13.3059138,13.3986688 L20.6434318,13.3986688 L20.6434318,8.55291824 L13.3315776,8.55291824 L13.3315776,0.402 L7.98183868,0.402 C7.89318187,0.402 7.73919898,0.468286211 7.71820131,0.642001799 C7.40556938,3.13573478 6.07338407,7.51519617 0.53,9.26606644 L0.53,13.3986688 L4.22792245,13.3986688 L4.22792245,23.8536043 C4.22792245,27.4330597 7.24225419,32.5188122 15.202703,32.3999541 C17.8880713,32.358811 20.86974,31.3759464 21.53,30.5256544 L19.7731952,25.9633344" id="Shape" fill="#FFFFFF"></path>

</svg>